<?xml version="1.0" encoding="utf-8" ?>
<svg xmlns="http://www.w3.org/2000/svg" xmlns:xlink="http://www.w3.org/1999/xlink" width="299" height="128">
	<defs>
		<linearGradient id="gradient_0" gradientUnits="userSpaceOnUse" x1="135.12663" y1="109.11314" x2="157.05052" y2="-9.6203833">
			<stop offset="0" stop-color="#731646"/>
			<stop offset="1" stop-color="#774849"/>
		</linearGradient>
	</defs>
	<path fill="url(#gradient_0)" d="M94.9326 102.467C90.9097 99.1583 87.4282 94.3286 84.0091 90.39L64.6289 68.1745C57.6882 60.3412 50.8015 52.4603 43.9694 44.5321C40.5549 40.5994 36.6225 36.855 33.8817 32.4139L34.3264 32.0974L34.0904 32.0868C36.4262 29.0638 57.9998 6.02025 59.5273 5.71722C61.1475 5.3958 63.4594 5.69002 65.1379 5.69101L80.1705 5.6956L138.641 5.70213C143.096 5.69084 183.8 5.31993 184.794 6.02851C185.917 6.82837 203.789 31.3068 204.033 32.6409C204.03 32.7427 204.018 32.8399 203.994 32.9392C203.837 33.5696 178.143 62.9073 175.338 65.846C174.756 66.456 174.177 66.9755 173.419 67.364C173.629 67.4717 173.841 67.5952 174.028 67.7404C175.446 68.8424 179.524 73.0204 179.765 74.8014C180.641 74.4565 181.247 73.7856 181.873 73.1108C184.115 70.6922 186.162 68.0853 188.387 65.6472L223.808 26.5559C227.684 22.2288 231.535 17.8439 235.491 13.591C237.432 11.5036 239.314 9.36938 241.236 7.26462C241.8 6.64652 242.493 6.17694 243.02 5.52987C243.132 5.61316 243.239 5.70142 243.343 5.7944C245.376 7.65782 264.72 32.4044 264.752 33.2498C264.653 33.5512 264.514 33.853 264.304 34.0944L231.924 71.0349L215.391 89.9041C212.259 93.5059 209.26 97.2605 206.028 100.772C205.43 101.422 204.842 101.983 204.069 102.42C197.826 102.683 191.499 102.43 185.249 102.428C180.639 102.427 175.794 102.777 171.222 102.33C170.29 102.23 169.554 102.315 168.644 102.53C164.188 102.372 159.718 102.498 155.258 102.37C155.089 101.847 149.791 95.9632 149.245 95.6266C148.734 96.8799 145.595 100.154 144.519 101.224C143.982 101.759 143.542 102.246 142.763 102.379C139.435 102.948 132.187 102.475 128.493 102.475L94.9326 102.467ZM119.344 74.7456C120.18 73.7541 120.992 72.6838 121.936 71.793C123.084 70.5349 124.291 69.2958 125.353 67.9645C117.952 60.2969 111.048 51.9194 104.083 43.8441C100.956 40.2182 97.7351 35.8906 94.1311 32.7576C90.3703 32.7574 86.5672 32.8734 82.812 32.7014C85.3 36.1315 88.4135 39.1063 91.1847 42.3022C97.4007 49.4708 103.579 56.6725 109.893 63.7583C112.863 67.0909 116.994 71.0739 119.344 74.7456ZM150.055 40.5143C150.957 39.9536 152.836 38.0619 153.109 37.0125C153.12 36.9691 153.12 36.91 153.122 36.8676C154.073 36.0744 156.417 34.2619 156.551 32.9731C156.559 32.9042 156.557 32.8917 156.558 32.8152C152.365 33.3668 148.109 32.6875 143.915 32.8715C144.883 34.9665 149.869 39.0156 150.055 40.5143Z"/>
	<path fill="#22A126" d="M31.7799 107.586C35.5405 107.565 46.578 106.943 49.3483 108.729C49.831 109.04 50.0386 109.528 50.1614 110.066C50.4336 111.26 50.6533 121.388 50.1357 122.216C49.131 122.735 47.5916 122.533 46.477 122.524C46.6681 118.796 46.3618 115.056 46.6464 111.326C44.9532 111.467 43.3874 111.495 41.6904 111.405C41.889 112.957 41.916 114.436 41.8675 115.999C41.7091 118.167 41.9189 120.476 41.9627 122.657L37.9871 122.425L38.3249 111.472C36.595 111.522 34.8638 111.502 33.1355 111.412C33.825 114.904 33.543 119.07 33.3696 122.627C32.0531 122.604 30.726 122.504 29.4101 122.441C29.5386 118.962 28.9577 110.919 29.6534 108.151C30.4031 107.609 30.8707 107.667 31.7799 107.586Z"/>
	<path fill="#22A126" d="M229.15 107.875C231.639 107.607 237.814 107.068 239.731 108.664C240.492 109.297 240.69 110.959 240.775 111.898C240.995 114.306 241.437 119.537 239.766 121.451C239.083 122.234 238.215 122.311 237.251 122.375C235.586 122.823 230.519 122.906 228.896 122.312C227.885 121.943 227.156 121.27 226.716 120.29C226.037 118.775 225.844 111.695 226.476 110.082C226.957 108.854 228.016 108.382 229.15 107.875ZM229.837 118.778C232.084 118.712 234.333 118.614 236.579 118.748C237.517 117.807 237.301 115.976 237.299 114.658C237.297 113.665 237.439 112.209 236.858 111.377C234.657 111.492 231.993 111.179 229.887 111.624C230.454 113.507 230.959 116.761 229.98 118.553C229.937 118.632 229.888 118.705 229.837 118.778Z"/>
	<path fill="#22A126" d="M204.036 107.875C204.087 107.868 204.139 107.862 204.19 107.857C207.044 107.569 212.607 107.078 214.973 108.996C215.453 109.855 215.621 110.795 215.719 111.764C215.967 114.226 216.382 119.394 214.721 121.375C214.066 122.157 213.254 122.297 212.285 122.375C210.426 122.855 205.03 122.941 203.344 122.026C202.291 121.455 201.704 120.471 201.384 119.345C200.751 117.114 200.79 111.155 201.851 109.173C202.27 108.389 203.247 108.168 204.036 107.875ZM204.684 118.766C206.906 118.677 209.078 118.672 211.298 118.758C211.797 118.366 211.897 118.372 211.976 117.723C212.173 116.107 212.256 112.902 211.746 111.371C209.424 111.646 206.948 111.25 204.682 111.624C205.094 113.606 205.417 116.852 204.684 118.766Z"/>
	<path fill="#22A126" d="M76.0355 113.111C78.073 113.431 83.8887 113.937 85.498 112.768C85.5193 112.611 85.5988 112.344 85.5057 112.221C85.1291 111.723 84.3541 111.622 83.7735 111.563C80.7831 111.258 77.627 111.473 74.6514 111.77C74.3202 111.145 74.1543 108.976 74.36 108.307C74.4184 108.117 74.5006 108.099 74.668 108.031C76.2207 107.406 85.5243 107.492 87.0679 108.181C87.9765 108.587 88.4831 109.353 88.8144 110.262C89.3622 111.765 89.7325 120.615 89.0453 122.039C89.0031 122.126 88.953 122.208 88.8994 122.288C86.4777 122.765 77.6192 122.963 75.7351 121.728C75.2797 121.429 74.8403 120.78 74.748 120.24C74.7304 120.137 74.7328 120.146 74.7254 120.056C74.6589 119.893 74.5938 119.718 74.5661 119.544C74.3752 118.344 74.0686 114.449 74.7754 113.506C75.0452 113.146 75.6077 113.175 76.0355 113.111ZM83.3815 118.622C84.1756 118.586 84.9599 118.632 85.6063 118.105L85.7339 117.708C85.3428 117.113 84.551 116.954 83.8901 116.823C82.6749 116.581 81.1771 116.765 79.9334 116.795C79.2055 116.908 78.7545 116.877 78.2022 117.394L78.1141 117.988C78.5143 118.459 78.8593 118.6 79.4816 118.66C80.7296 118.78 82.1249 118.648 83.3815 118.622Z"/>
	<path fill="#22A126" d="M137.824 107.872C140.46 107.556 145.93 107.052 148.192 108.562C148.833 108.991 149.203 109.601 149.357 110.352C149.474 110.6 149.571 110.853 149.618 111.123C149.878 112.599 150.16 115.788 149.305 117.022C148.908 116.955 148.509 116.904 148.108 116.868C145.943 116.695 139.94 116.136 138.394 117.461C138.309 117.875 138.313 117.892 138.506 118.269C139.76 119.103 143.144 118.692 144.687 118.69C146.252 118.694 147.863 118.619 149.413 118.85C149.532 119.041 149.634 119.237 149.699 119.453C149.985 120.405 149.854 121.604 149.38 122.47C146.285 122.572 139.975 123.088 137.132 122.202C136.411 121.978 136.081 121.595 135.745 120.945C134.837 119.191 134.479 111.772 135.135 109.875C135.508 108.797 136.87 108.321 137.824 107.872ZM145.285 113.525C145.721 113.2 146.047 112.964 146.248 112.447C146.146 112.104 146.141 111.943 145.8 111.758C144.362 110.979 140.458 111.495 138.795 111.626C138.527 112.217 138.428 112.324 138.585 112.954C140.285 113.966 144.025 112.656 145.285 113.525Z"/>
	<path fill="#22A126" d="M269.091 107.875C271.011 107.601 273.111 107.67 275.053 107.679C276.527 107.686 278.565 107.572 279.674 108.692C280.361 109.298 280.781 110.147 280.937 111.044C281.177 112.437 281.39 115.054 280.529 116.23C279.547 117.57 272.986 116.507 271.143 116.824C270.517 116.931 270.334 117.119 269.981 117.607C270.004 117.791 270.006 118.262 270.128 118.381C271.001 119.237 275.397 118.707 276.694 118.66L280.317 118.528C280.793 119.171 281.082 120.497 280.984 121.291C280.914 121.849 280.818 121.995 280.397 122.319C277.55 122.886 270.828 122.901 268.095 121.897C267.433 121.654 267.084 121.469 266.782 120.808C265.997 119.081 265.909 111.705 266.576 110.016C267.053 108.806 267.955 108.371 269.091 107.875Z"/>
	<path fill="#22A126" d="M286.06 107.875C288.806 107.611 294.402 106.935 296.611 108.654C296.824 108.887 297.02 109.157 297.198 109.418C297.716 110.172 298.021 111.069 297.851 111.983C297.504 112.313 297.366 112.404 296.861 112.372C295.89 112.31 294.783 111.762 293.816 111.549C292.291 111.214 288.545 111.014 287.1 111.599L286.873 112.328C287.903 113.847 294.36 112.14 296.582 113.738C297.347 114.288 297.746 115.117 297.884 116.035C298.12 117.608 298.064 119.829 297.075 121.16C296.449 122.002 295.708 122.226 294.708 122.375C292.874 122.953 286.68 122.714 285.081 121.864C284.355 121.478 283.627 120.807 283.419 119.984C283.25 119.31 283.357 119.088 283.675 118.521C285.418 117.48 289.448 118.705 291.486 118.836C292.624 118.91 293.907 118.564 294.768 117.802C294.648 117.582 294.478 117.149 294.315 116.975C293.469 116.072 287.372 117.059 285.624 116.437C284.663 116.094 283.852 115.467 283.423 114.526C282.826 113.213 283.122 111.572 283.606 110.273C284.103 108.936 284.797 108.463 286.06 107.875Z"/>
	<path fill="#22A126" d="M93.945 107.823C96.5819 107.624 100.42 107.329 102.944 108.071C103.783 108.318 104.686 108.79 105.1 109.602C105.386 110.166 105.506 110.937 105.316 111.542C104.73 113.401 96.9963 110.263 95.1465 111.328C94.7168 111.575 94.6691 111.772 94.5371 112.221L94.9007 112.739C96.5173 113.319 101.224 113.014 103.232 113.073C104.028 113.669 104.695 114.345 105.378 115.065C105.509 116.813 105.895 119.118 105.058 120.707C104.478 121.808 103.569 122.138 102.435 122.48C100.475 122.518 94.2141 123.031 92.7767 122.035C92.041 121.525 91.0635 120.215 90.9123 119.319C90.8237 118.793 90.8754 118.712 91.1662 118.298C93.6322 117.571 98.1523 118.919 100.981 118.739C101.631 118.697 101.993 118.537 102.416 118.057C102.38 117.951 102.342 117.846 102.294 117.744C101.448 115.952 95.1986 117.027 93.229 116.301C92.339 115.972 91.5857 115.388 91.1943 114.506C90.3902 112.694 91.1427 110.514 91.7996 108.771C92.5009 108.432 93.2315 108.137 93.945 107.823Z"/>
	<path fill="#22A126" d="M185.135 107.625C187.772 107.704 195.885 107.052 197.704 108.466C198.764 109.29 199.186 110.739 199.338 112.018C199.517 113.515 199.814 121.428 199.076 122.356C197.884 122.78 196.24 122.521 194.981 122.472C195.104 122.295 195.191 122.106 195.25 121.899C195.734 120.199 195.876 116.163 195 114.63C195.079 114.495 195.145 114.355 195.207 114.211C195.57 113.37 195.619 112.377 195.288 111.518C192.874 111.586 190.478 111.536 188.066 111.462C188.201 111.681 188.267 111.923 188.333 112.169C188.79 113.857 188.862 120.943 188.014 122.4C186.868 122.777 185.231 122.443 184.03 122.347C185.63 119.514 183.743 111.701 184.415 108.475C184.526 107.942 184.703 107.904 185.135 107.625Z"/>
	<path fill="#22A126" d="M167.953 106.994C169.681 106.596 170.455 107.775 171.937 107.696C174.838 108.602 178.245 106.586 181.395 108.624C181.984 109.12 182.288 109.639 182.488 110.378C182.861 111.751 183.026 121.383 182.43 122.442C181.166 122.633 179.721 122.492 178.437 122.487C178.582 122.264 178.712 122.03 178.789 121.774C179.188 120.43 179.265 112.519 178.643 111.397C176.438 111.71 174.028 111.53 171.797 111.534C171.836 111.679 171.868 111.825 171.893 111.973C172.137 113.359 172.188 121.58 171.549 122.479L167.675 122.555C168.624 121.108 168.374 109.133 167.953 106.994Z"/>
	<path fill="#22A126" d="M163.619 107.624C164.325 107.581 164.764 107.469 165.406 107.804C165.852 108.555 166.177 109.135 166.253 110.018C166.162 110.264 166.088 110.628 165.901 110.808C164.3 112.355 157.145 111.507 154.76 111.437C154.871 111.596 154.96 111.773 155.04 111.949C155.829 113.688 155.582 116.909 154.927 118.655C158.534 118.558 162.127 118.642 165.732 118.426C165.952 118.669 166.067 118.906 166.155 119.219C166.456 120.292 166.634 121.092 166.071 122.105C165.388 122.579 165 122.477 164.187 122.477C160.5 122.504 156.813 122.496 153.126 122.454C152.999 121.513 151.532 120.477 151.355 118.921C151.116 116.811 151.088 110.672 152.313 109.165C154.295 106.728 160.693 107.909 163.619 107.624Z"/>
	<path fill="#22A126" d="M8.21058 103.9C8.72718 104.799 8.48792 116.98 8.28678 118.713C12.8077 118.007 17.9561 118.496 22.5437 118.477C22.4704 119.798 22.5316 121.13 22.5606 122.452L18.9375 122.486C14.1391 122.446 9.22548 122.286 4.44053 122.608C4.40828 120.102 3.87177 105.667 4.7606 104.536C5.28097 103.874 7.41765 103.977 8.21058 103.9Z"/>
	<path fill="#22A126" d="M119.255 104.126C123.701 104.047 128.355 104.49 132.764 103.961C132.923 104.184 133.046 104.414 133.122 104.679C133.393 105.615 133.624 107.16 133.153 108.038C130.782 107.953 128.41 107.895 126.037 107.862C126.206 111.335 126.161 114.835 126.19 118.313L126.363 122.434C125.007 122.51 123.654 122.629 122.306 122.79C121.915 117.843 122.226 112.793 122.237 107.831C119.837 107.684 117.423 107.762 115.02 107.792L114.997 104.329C116.406 104.21 117.84 104.188 119.255 104.126Z"/>
	<path fill="#22A126" d="M218.664 102.624C219.472 102.543 220.284 102.384 221.052 102.716C222.668 104.604 221.216 115.273 221.625 118.345C222.389 118.911 223.345 118.357 224.243 118.782C224.639 119.443 224.833 120.874 224.64 121.662C224.497 122.248 224.118 122.351 223.639 122.625C221.922 122.525 219.814 122.492 218.524 121.209C217.406 118.809 217.53 107.352 217.766 104.26C217.831 103.412 218.05 103.169 218.664 102.624Z"/>
	<path fill="#22A126" d="M23.8183 107.764C24.9811 107.745 26.2618 107.62 27.3935 107.913C28.0492 109.275 27.733 119.932 27.6711 122.307C26.6418 122.553 25.3971 122.671 24.3494 122.511C24.1241 122.476 24.1037 122.368 23.9722 122.19C23.5712 119.603 23.0808 109.686 23.8183 107.764Z"/>
	<path fill="#22A126" d="M260.621 107.875C261.766 107.749 262.884 107.762 264.033 107.788C264.356 108.274 264.337 108.807 264.377 109.383C264.471 110.746 264.697 120.999 264.365 121.721C264.277 121.914 263.952 122.194 263.803 122.364C263.181 122.757 260.878 122.531 260.055 122.539C261.513 120.128 260.048 111.299 260.621 107.875Z"/>
	<path fill="#22A126" d="M68.9402 107.669C70.151 107.739 71.2932 107.711 72.5005 107.618C72.531 109.787 73.0474 121.559 72.2255 122.561L68.7004 122.443C68.8334 119.705 68.3979 108.983 68.9402 107.669Z"/>
	<path fill="#468242" d="M168.644 102.53C169.554 102.315 170.29 102.23 171.222 102.33C172.092 103.566 172.253 106.092 171.957 107.605C171.951 107.635 171.944 107.666 171.937 107.696C170.455 107.775 169.681 106.596 167.953 106.994C168.418 106.016 168.563 103.702 168.644 102.53Z"/>
	<path fill="#468242" d="M25.3176 102.772C25.931 102.749 26.4023 102.889 26.9771 103.074C27.3802 103.53 27.6946 103.992 27.8753 104.577C28.0794 105.237 27.9632 105.772 27.6583 106.362L26.8122 106.51C25.6996 106.423 24.6143 106.483 23.5036 106.549C23.5364 105.571 23.2861 104.612 23.4715 103.646C24.0804 103 24.4764 102.986 25.3176 102.772Z"/>
	<path fill="#468242" d="M260.976 102.625C261.631 102.57 262.636 102.657 263.252 102.879C263.782 103.071 264.402 103.696 264.617 104.216C264.778 104.607 264.806 105.119 264.618 105.508C264.277 106.214 263.966 106.287 263.276 106.524C262.216 106.534 261.181 106.619 260.128 106.733C260.765 105.402 260.043 103.837 260.976 102.625Z"/>
	<path fill="#468242" d="M71.6183 102.548C71.8052 102.493 72.0109 102.521 72.2051 102.529C72.2601 102.599 72.3119 102.672 72.3555 102.751C72.7093 103.388 72.6462 105.622 72.4411 106.312C71.6386 106.873 70.6219 106.524 69.6996 106.362C69.1375 106.406 69.0315 106.344 68.5398 106.07C68.4645 105.896 68.4004 105.722 68.3735 105.533C68.2851 104.91 68.5892 104.251 68.9488 103.763C69.6655 102.79 70.4945 102.727 71.6183 102.548Z"/>
	<path fill="#22A126" d="M245.416 128C245.776 127.087 245.49 125.868 245.756 124.848C247.546 123.275 251.921 125.121 254.239 124.099L254.421 123.434C253.382 120.993 246.49 123.579 244.286 121.621C243.414 120.846 243.261 118.797 243.202 117.693C243.084 115.474 242.69 110.453 244.356 108.724C245.07 107.983 246.567 107.77 247.537 107.727C249.977 107.619 255.066 107.115 256.918 108.819C257.285 109.126 257.433 109.495 257.582 109.938C258.208 111.8 258.538 123.578 257.887 124.906C257.912 125.181 257.842 125.394 257.754 125.652C257.447 126.548 256.908 127.095 256.063 127.501C254.681 127.158 248.212 126.743 247.025 127.496C246.801 127.639 246.602 127.812 246.415 128L245.416 128ZM246.74 118.8C249.132 118.523 251.478 118.622 253.877 118.575C253.978 118.44 254.253 118.159 254.297 118.014C254.546 117.193 254.481 112.941 254.326 111.99C254.293 111.793 254.193 111.618 254.078 111.458C251.943 111.521 248.95 111.108 246.951 111.624C247.474 113.26 247.732 116.866 246.943 118.431C246.902 118.513 246.853 118.588 246.81 118.668C246.795 118.696 246.782 118.724 246.768 118.752C246.759 118.768 246.749 118.784 246.74 118.8Z"/>
	<path fill="#22A126" d="M52.3423 128C52.1886 125.55 51.9912 108.908 52.6367 107.935C54.3043 107.192 62.8729 107.551 64.6766 108.261C65.2419 108.483 65.7858 108.794 66.3123 109.096C67.1272 111.801 67.7614 118.255 66.3787 120.797C66.0225 121.452 65.4888 121.934 64.7667 122.147C62.2242 122.898 58.5273 121.798 56.4203 122.477C55.8141 124.219 56.2307 126.195 55.9647 128L52.3423 128ZM56.1559 118.86C58.5606 118.332 60.9066 118.736 63.3219 118.628C63.0685 116.195 63.1465 113.807 63.2844 111.369C60.8294 111.504 58.3448 111.608 55.8898 111.411C56.2428 113.859 56.2009 116.39 56.1559 118.86Z"/>
	<path fill="#29C327" fill-opacity="0.97254902" d="M246.415 128C246.602 127.812 246.801 127.639 247.025 127.496C248.212 126.743 254.681 127.158 256.063 127.501L255.808 128L246.415 128Z"/>
</svg>
